HIERARCHY
ROOT Hips
{
  OFFSET 5.80788e-005 67.184 3.4734
  CHANNELS 6 Xposition Yposition Zposition Zrotation Xrotation Yrotation
  JOINT Chest
  {
    OFFSET 0 8.7983 -4.7612
    CHANNELS 3 Zrotation Xrotation Yrotation
    JOINT Chest2
    {
      OFFSET 0 8.0291 0.4195
      CHANNELS 3 Zrotation Xrotation Yrotation
      JOINT Chest3
      {
        OFFSET 0 9.9351 -2.2114
        CHANNELS 3 Zrotation Xrotation Yrotation
        JOINT Neck
        {
          OFFSET 0 22.3885 -0.4656
          CHANNELS 3 Zrotation Xrotation Yrotation
          JOINT Head
          {
            OFFSET -0.0001 12.643 3.4389
            CHANNELS 3 Zrotation Xrotation Yrotation
            End Site
            {
              OFFSET 0.0001 17.6655 0.5274
            }
          }
        }
        JOINT LeftCollar
        {
          OFFSET 2.2603 21.606 7.4023
          CHANNELS 3 Zrotation Xrotation Yrotation
          JOINT LeftShoulder
          {
            OFFSET 13.5163 -1.1332 -5.0146
            CHANNELS 3 Zrotation Xrotation Yrotation
            JOINT LeftElbow
            {
              OFFSET -0.0995 -28.05 -0.2431
              CHANNELS 3 Zrotation Xrotation Yrotation
              JOINT LeftWrist
              {
                OFFSET 0.0679 -23.3996 -0.1402
                CHANNELS 3 Zrotation Xrotation Yrotation
                JOINT LeftFinger1
                {
                  OFFSET 0.7932 -9.069 2.5189
                  CHANNELS 3 Zrotation Xrotation Yrotation
                  JOINT LeftFinger11
                  {
                    OFFSET -0.8272 -3.3923 0.5977
                    CHANNELS 3 Zrotation Xrotation Yrotation
                    JOINT LeftFinger12
                    {
                      OFFSET -0.5649 -2.3158 0.4082
                      CHANNELS 3 Zrotation Xrotation Yrotation
                      End Site
                      {
                        OFFSET -0.4919 -1.6479 0.2673
                      }
                    }
                  }
                }
                JOINT LeftFinger2
                {
                  OFFSET 0.9159 -9.2044 0.2193
                  CHANNELS 3 Zrotation Xrotation Yrotation
                  JOINT LeftFinger21
                  {
                    OFFSET 0.0117 -4.1944 -0.0248
                    CHANNELS 3 Zrotation Xrotation Yrotation
                    JOINT LeftFinger22
                    {
                      OFFSET 0.0071 -2.3249 -0.0142
                      CHANNELS 3 Zrotation Xrotation Yrotation
                      End Site
                      {
                        OFFSET -0.1475 -2.0882 0.0028
                      }
                    }
                  }
                }
                JOINT LeftFinger3
                {
                  OFFSET 0.6113 -8.7231 -2.0637
                  CHANNELS 3 Zrotation Xrotation Yrotation
                  JOINT LeftFinger31
                  {
                    OFFSET -0.1927 -3.8059 -0.2383
                    CHANNELS 3 Zrotation Xrotation Yrotation
                    JOINT LeftFinger32
                    {
                      OFFSET -0.1091 -2.1688 -0.1362
                      CHANNELS 3 Zrotation Xrotation Yrotation
                      End Site
                      {
                        OFFSET -0.2358 -1.9176 -0.0906
                      }
                    }
                  }
                }
                JOINT LeftFinger4
                {
                  OFFSET -0.6151 -8.0947 -3.5641
                  CHANNELS 3 Zrotation Xrotation Yrotation
                  JOINT LeftFinger41
                  {
                    OFFSET -0.4882 -2.341 -0.6462
                    CHANNELS 3 Zrotation Xrotation Yrotation
                    JOINT LeftFinger42
                    {
                      OFFSET -0.3575 -1.7167 -0.4742
                      CHANNELS 3 Zrotation Xrotation Yrotation
                      End Site
                      {
                        OFFSET -0.4187 -1.5237 -0.3496
                      }
                    }
                  }
                }
                JOINT LeftFinger0
                {
                  OFFSET -1.42 -1.8761 1.4223
                  CHANNELS 3 Zrotation Xrotation Yrotation
                  JOINT LeftFinger01
                  {
                    OFFSET -1.1471 -3.4929 2.6334
                    CHANNELS 3 Zrotation Xrotation Yrotation
                    JOINT LeftFinger02
                    {
                      OFFSET -0.823 -2.3 1.6571
                      CHANNELS 3 Zrotation Xrotation Yrotation
                      End Site
                      {
                        OFFSET -0.5822 -1.6914 1.1582
                      }
                    }
                  }
                }
              }
            }
          }
        }
        JOINT RightCollar
        {
          OFFSET -2.2603 21.606 7.4023
          CHANNELS 3 Zrotation Xrotation Yrotation
          JOINT RightShoulder
          {
            OFFSET -13.5187 -1.1334 -5.0155
            CHANNELS 3 Zrotation Xrotation Yrotation
            JOINT RightElbow
            {
              OFFSET 0.0994 -28.0499 -0.2431
              CHANNELS 3 Zrotation Xrotation Yrotation
              JOINT RightWrist
              {
                OFFSET -0.0679 -23.3996 -0.1402
                CHANNELS 3 Zrotation Xrotation Yrotation
                JOINT RightFinger1
                {
                  OFFSET -0.7932 -9.0691 2.5189
                  CHANNELS 3 Zrotation Xrotation Yrotation
                  JOINT RightFinger11
                  {
                    OFFSET 0.8272 -3.3923 0.5977
                    CHANNELS 3 Zrotation Xrotation Yrotation
                    JOINT RightFinger12
                    {
                      OFFSET 0.565 -2.3158 0.4082
                      CHANNELS 3 Zrotation Xrotation Yrotation
                      End Site
                      {
                        OFFSET 0.4919 -1.6479 0.2673
                      }
                    }
                  }
                }
                JOINT RightFinger2
                {
                  OFFSET -0.916 -9.2044 0.2193
                  CHANNELS 3 Zrotation Xrotation Yrotation
                  JOINT RightFinger21
                  {
                    OFFSET -0.0117 -4.1944 -0.0248
                    CHANNELS 3 Zrotation Xrotation Yrotation
                    JOINT RightFinger22
                    {
                      OFFSET -0.0071 -2.3249 -0.0142
                      CHANNELS 3 Zrotation Xrotation Yrotation
                      End Site
                      {
                        OFFSET 0.1475 -2.0882 0.0028
                      }
                    }
                  }
                }
                JOINT RightFinger3
                {
                  OFFSET -0.6113 -8.7231 -2.0637
                  CHANNELS 3 Zrotation Xrotation Yrotation
                  JOINT RightFinger31
                  {
                    OFFSET 0.1927 -3.8059 -0.2383
                    CHANNELS 3 Zrotation Xrotation Yrotation
                    JOINT RightFinger32
                    {
                      OFFSET 0.1091 -2.1688 -0.1362
                      CHANNELS 3 Zrotation Xrotation Yrotation
                      End Site
                      {
                        OFFSET 0.2358 -1.9176 -0.0906
                      }
                    }
                  }
                }
                JOINT RightFinger4
                {
                  OFFSET 0.6151 -8.0947 -3.564
                  CHANNELS 3 Zrotation Xrotation Yrotation
                  JOINT RightFinger41
                  {
                    OFFSET 0.4882 -2.341 -0.6462
                    CHANNELS 3 Zrotation Xrotation Yrotation
                    JOINT RightFinger42
                    {
                      OFFSET 0.3574 -1.7166 -0.4742
                      CHANNELS 3 Zrotation Xrotation Yrotation
                      End Site
                      {
                        OFFSET 0.4187 -1.5237 -0.3496
                      }
                    }
                  }
                }
                JOINT RightFinger0
                {
                  OFFSET 1.4199 -1.8761 1.4221
                  CHANNELS 3 Zrotation Xrotation Yrotation
                  JOINT RightFinger01
                  {
                    OFFSET 1.1472 -3.4929 2.6336
                    CHANNELS 3 Zrotation Xrotation Yrotation
                    JOINT RightFinger02
                    {
                      OFFSET 0.8229 -2.3 1.6571
                      CHANNELS 3 Zrotation Xrotation Yrotation
                      End Site
                      {
                        OFFSET 0.5822 -1.6914 1.1582
                      }
                    }
                  }
                }
              }
            }
          }
        }
      }
    }
  }
  JOINT RightHip
  {
    OFFSET -9.412 3.9771 -0.7758
    CHANNELS 3 Zrotation Xrotation Yrotation
    JOINT RightKnee
    {
      OFFSET -0.7531 -40.938 0
      CHANNELS 3 Zrotation Xrotation Yrotation
      JOINT RightAnkle
      {
        OFFSET 0 -40.1986 0
        CHANNELS 3 Zrotation Xrotation Yrotation
        JOINT RightToe
        {
          OFFSET 0 -4.4182 9.239
          CHANNELS 3 Zrotation Xrotation Yrotation
          End Site
          {
            OFFSET 0 0 6.1981
          }
        }
      }
    }
  }
  JOINT LeftHip
  {
    OFFSET 9.4119 3.9773 -0.7758
    CHANNELS 3 Zrotation Xrotation Yrotation
    JOINT LeftKnee
    {
      OFFSET 0.7532 -40.9383 0
      CHANNELS 3 Zrotation Xrotation Yrotation
      JOINT LeftAnkle
      {
        OFFSET 0 -40.1986 0
        CHANNELS 3 Zrotation Xrotation Yrotation
        JOINT LeftToe
        {
          OFFSET 0 -4.4182 9.239
          CHANNELS 3 Zrotation Xrotation Yrotation
          End Site
          {
            OFFSET 0 0 6.1981
          }
        }
      }
    }
  }
}
MOTION
Frames:	5
Frame Time:	0.0333333
5.80788e-005 67.184 3.4734 0 0 -0 0 0 -0 0 0 -0 0 0 -0 0 0 -0 0 0 -0 0 0 -12.5014 88.1196 14.2451 10.6914 -0.00160068 -0.00239207 0.000740045 -8.4365e-005 7.00714e-005 -9.52055e-007 9.93923e-017 -1.98785e-016 -1.59028e-015 9.93923e-017 -5.96354e-016 -1.59028e-015 -9.93923e-017 -5.96354e-016 -1.59028e-015 9.93923e-017 -1.98785e-016 -1.59028e-015 -0.0128176 0.00232552 8.52707e-005 9.93923e-017 5.96354e-016 -0 9.93923e-017 -1.98785e-016 -1.59028e-015 -0.0160551 0.00299681 0.000857156 -2.48481e-016 0 3.18055e-015 9.93923e-017 -1.98785e-016 -1.59028e-015 -0.0125865 0.0031206 0.00282719 0 1.98785e-016 -0 9.93923e-017 -1.98785e-016 -1.59028e-015 9.93923e-017 -5.96354e-016 -1.59028e-015 -9.93923e-017 -5.96354e-016 -1.59028e-015 -0.865644 0.16582 7.03859 -88.0329 10.2057 -10.5567 0.0015593 -0.00248883 -0.000788628 7.87605e-005 4.10553e-005 1.24965e-005 -3.97569e-016 -7.95139e-016 3.18055e-015 -1.98785e-016 -3.97569e-016 3.18055e-015 -1.98785e-016 0 3.18055e-015 -3.97569e-016 -7.95139e-016 3.18055e-015 0.0129473 0.00231697 -8.70038e-005 9.93923e-017 -7.95139e-016 1.59028e-015 -3.97569e-016 -7.95139e-016 3.18055e-015 0.0163314 0.00303369 -0.000872333 3.97569e-016 7.95139e-016 -3.18055e-015 -3.97569e-016 -7.95139e-016 3.18055e-015 0.0145763 0.00367772 -0.00326275 9.93923e-017 -3.97569e-016 -0 -3.97569e-016 -7.95139e-016 3.18055e-015 -1.98785e-016 -3.97569e-016 3.18055e-015 -1.98785e-016 0 3.18055e-015 3.42485 1.36937 -0.0640303 0.000136572 0.69354 0.00145564 -3.42573 -2.06297 -0.0607933 -3.19502e-024 0 -1.48106e-024 -3.42498 1.36123 0.0639712 -6.769e-005 0.712612 -0.0012277 3.42582 -2.07388 0.0612819 2.55305e-023 0 -2.31416e-026 
2.01585 52.0246 -8.3752 0 0 -3.41098e-010 -0.00303702 0.418012 -0.022697 -0.00590875 0.836035 -0.0453742 -0.00590875 0.836036 -0.0453742 -0.0320929 -0.0154419 0.036115 -3.33287e-009 -4.51917e-012 -1.20734e-010 -2.03431 -0.0492013 -12.5014 82.1799 4.22185 11.7861 -1.20689 -4.25666 16.328 -1.74996 0.318554 -0.0496625 2.38542e-015 3.18055e-015 -0 -7.95139e-016 0 3.18055e-015 -3.18055e-015 -3.18055e-015 9.54166e-015 2.38542e-015 3.18055e-015 -0 -0.0128157 0.00232622 8.29833e-005 -5.56597e-015 3.18055e-015 -3.18055e-015 2.38542e-015 3.18055e-015 -0 -0.0159684 0.00297909 0.000852549 -1.59028e-015 0 -3.18055e-015 2.38542e-015 3.18055e-015 -0 -0.0125876 0.00311863 0.00282616 7.95139e-016 1.59028e-015 3.18055e-015 2.38542e-015 3.18055e-015 -0 -7.95139e-016 0 3.18055e-015 -3.18055e-015 -3.18055e-015 9.54166e-015 1.16777 0.116562 7.03783 -82.1 0.210774 -11.2163 0.673269 -3.75424 0.0923307 1.74789 0.314558 0.093698 -1.59028e-015 3.18055e-015 -3.18055e-015 -1.98785e-015 3.18055e-015 -3.18055e-015 -2.98177e-015 1.59028e-015 -3.18055e-015 -1.59028e-015 3.18055e-015 -3.18055e-015 0.0129431 0.00231799 -8.41002e-005 -1.19271e-015 -1.59028e-015 -3.18055e-015 -1.59028e-015 3.18055e-015 -3.18055e-015 0.0162206 0.00301626 -0.000867383 2.18663e-015 0 3.18055e-015 -1.59028e-015 3.18055e-015 -3.18055e-015 0.0146033 0.00368372 -0.00326559 -2.38542e-015 0 -0 -1.59028e-015 3.18055e-015 -3.18055e-015 -1.98785e-015 3.18055e-015 -3.18055e-015 -2.98177e-015 1.59028e-015 -3.18055e-015 2.08559 -12.3438 -1.6537 1.02413 41.4696 -0.378104 -5.43052 9.26134 -0.964375 -6.62732e-008 -2.63357e-009 8.36498e-008 -2.08608 -12.3738 1.65198 -1.02631 41.4998 0.380513 5.42961 9.26112 0.963909 6.23435e-008 5.3501e-006 -2.78675e-007 
4.16117 35.8423 -20.9834 0 0 -1.33838e-009 -0.00510058 0.863009 -0.0469784 -0.009495 1.72602 -0.093896 -0.00949494 1.72601 -0.0938954 -0.0892471 -0.0437547 0.100536 -4.50372e-017 7.95139e-016 -2.48481e-017 -4.19932 -0.102186 -12.5014 76.2952 -6.58248 12.9489 -2.33516 -8.91722 33.5983 -3.61207 0.658764 -0.0908723 -4.18637e-022 3.77075e-006 6.36111e-015 5.29669e-031 -9.54166e-015 3.18055e-015 3.18055e-015 -3.18055e-015 3.18055e-015 -4.18637e-022 3.77075e-006 6.36111e-015 -0.0128199 0.00233486 7.7865e-005 -3.18055e-015 -3.18055e-015 -0 -4.18637e-022 3.77075e-006 6.36111e-015 -0.0160827 0.00300568 0.000849049 9.54166e-015 -5.75365e-007 -3.18055e-015 -4.18637e-022 3.77075e-006 6.36111e-015 -0.0125502 0.00311054 0.00281226 -3.53113e-031 -3.18055e-015 -6.36111e-015 -4.18637e-022 3.77075e-006 6.36111e-015 5.29669e-031 -9.54166e-015 3.18055e-015 3.18055e-015 -3.18055e-015 3.18055e-015 3.33184 0.0635178 7.03706 -76.0314 -10.5061 -11.9368 1.39909 -7.74543 0.240519 3.60755 0.652218 0.182817 -4.17448e-015 -3.18055e-015 -0 3.36717e-007 1.66906e-006 7.82884e-007 -1.39149e-015 6.36111e-015 2.38542e-015 -4.17448e-015 -3.18055e-015 -0 0.0129219 0.00231489 -8.46805e-005 -3.18047e-006 -7.24345e-007 -8.24596e-008 -4.17448e-015 -3.18055e-015 -0 0.0163831 0.0030425 -0.000875468 1.19271e-014 0 -7.95139e-015 -4.17448e-015 -3.18055e-015 -0 0.0145523 0.0036741 -0.00325326 1.59032e-006 7.99311e-008 4.10939e-008 -4.17448e-015 -3.18055e-015 -0 3.36717e-007 1.66906e-006 7.82884e-007 -1.39149e-015 6.36111e-015 2.38542e-015 0.35048 -25.9039 -3.82705 -5.50758 82.7879 5.98339 -6.79953 22.3804 -2.38677 1.19271e-015 -4.77083e-015 -1.98785e-016 -0.350572 -25.8181 3.82678 5.43447 82.7032 -5.9196 6.79794 22.3801 2.38563 2.09373e-007 -4.6723e-009 -4.02761e-008 
6.13381 20.9671 -32.5689 5.71329e-009 -8.12763e-007 3.14899e-009 -0.00592914 1.27206 -0.0694004 -0.0103205 2.54413 -0.13872 -0.0103205 2.54413 -0.13872 -0.112929 -0.055162 0.12723 -2.48481e-017 3.18055e-015 -2.48481e-017 -6.19005 -0.150381 -12.5014 71.2948 -16.6288 14.1106 -3.21031 -13.2703 49.4208 -5.32425 0.972708 -0.119891 -6.36111e-015 3.18055e-015 -3.18055e-015 9.54166e-015 0 -0 -0 -9.54166e-015 -0 -6.36111e-015 3.18055e-015 -3.18055e-015 -0.0128008 0.0023253 8.98299e-005 6.36111e-015 0 3.18055e-015 -6.36111e-015 3.18055e-015 -3.18055e-015 -0.0161105 0.00301062 0.000861962 1.76556e-031 -3.18055e-015 3.18055e-015 -6.36111e-015 3.18055e-015 -3.18055e-015 -0.0126719 0.00313314 0.00284524 -2.78605e-006 3.38632e-006 -2.87489e-006 -6.36111e-015 3.18055e-015 -3.18055e-015 9.54166e-015 0 -0 -0 -9.54166e-015 -0 5.32171 0.0152652 7.03631 -70.6906 -20.4269 -12.6703 2.08176 -11.4137 0.423683 5.31718 0.965036 0.255068 -3.77691e-015 0 -4.47266e-015 2.15087e-006 3.19514e-006 -3.91157e-007 -4.57205e-015 -9.54166e-015 1.98785e-016 -3.77691e-015 0 -4.47266e-015 0.0129796 0.00233096 -8.91523e-005 -8.24956e-015 1.27222e-014 1.68967e-015 -3.77691e-015 0 -4.47266e-015 0.016404 0.00305246 -0.000878301 7.05686e-015 0 4.96962e-016 -3.77691e-015 0 -4.47266e-015 0.0145688 0.00368906 -0.00326284 -2.1516e-006 1.08895e-006 3.91175e-007 -3.77691e-015 0 -4.47266e-015 2.15087e-006 3.19514e-006 -3.91157e-007 -4.57205e-015 -9.54166e-015 1.98785e-016 -1.8542 -37.9236 -7.16219 -174.016 59.4694 173.325 -6.94175 34.5486 -4.84609 1.31922e-006 -6.76023e-008 2.08425e-006 1.84905 -37.9328 7.15671 174.021 59.46 -173.331 6.94001 34.5481 4.84407 1.29734e-006 6.03617e-006 -4.42612e-007 
7.63156 9.67095 -41.3482 0 0 -2.13909e-009 -0.00587264 1.58266 -0.0864865 -0.00935969 3.16533 -0.17291 -0.00935967 3.16532 -0.172909 -0.0446434 -0.0217634 0.0502619 2.64277e-008 -8.45528e-007 3.66311e-009 -7.70152 -0.187104 -12.5014 67.8013 -24.316 15.1226 -3.7687 -16.5864 61.4204 -6.62425 1.21153 -0.135458 -3.18055e-015 3.18055e-015 1.59028e-015 1.55016e-006 -1.4019e-006 -3.01755e-006 6.36111e-015 9.54166e-015 -1.59028e-015 -3.18055e-015 3.18055e-015 1.59028e-015 -0.0127642 0.00232315 7.71029e-005 -2.53032e-006 -8.42569e-007 1.66886e-006 -3.18055e-015 3.18055e-015 1.59028e-015 -0.0160882 0.00301998 0.000850863 3.18055e-015 -3.18055e-015 -0 -3.18055e-015 3.18055e-015 1.59028e-015 -0.0126403 0.00314862 0.00283226 -9.54166e-015 -3.18055e-015 -3.18055e-015 -3.18055e-015 3.18055e-015 1.59028e-015 1.55016e-006 -1.4019e-006 -3.01755e-006 6.36111e-015 9.54166e-015 -1.59028e-015 6.83251 -0.0215016 7.03575 -66.8185 -27.9981 -13.3166 2.61631 -14.1964 0.594732 6.61507 1.2039 0.303692 -1.15263e-006 -3.60761e-007 -1.25312e-006 -5.98082e-007 -1.11264e-006 -4.3186e-006 -1.59028e-015 1.59028e-014 3.18055e-015 -1.15263e-006 -3.60761e-007 -1.25312e-006 0.0129747 0.00232793 -9.02836e-005 3.97569e-015 -6.36111e-015 -6.36111e-015 -1.15263e-006 -3.60761e-007 -1.25312e-006 0.0163357 0.00303906 -0.000881105 -2.38542e-015 0 6.36111e-015 -1.15263e-006 -3.60761e-007 -1.25312e-006 0.014595 0.00368294 -0.00326389 -5.96354e-015 -3.18055e-015 3.18055e-015 -1.15263e-006 -3.60761e-007 -1.25312e-006 -5.98082e-007 -1.11264e-006 -4.3186e-006 -1.59028e-015 1.59028e-014 3.18055e-015 -4.1923 -46.2984 -12.4826 -175.296 31.0523 171.537 -5.18258 43.305 -8.84114 -4.52876e-007 4.80333e-006 -3.35337e-007 4.18683 -46.2974 12.4758 175.294 31.0524 -171.54 5.18191 43.3044 8.83756 5.41022e-007 7.54902e-006 -1.7674e-006 
